HIERARCHY
ROOT Hips
{
	OFFSET 0.00000 0.00000 0.00000
	CHANNELS 6 Xposition Yposition Zposition Yrotation Zrotation Xrotation 
	JOINT Lumbar
	{
		OFFSET 0 0 0
		CHANNELS 3 Zrotation Xrotation Yrotation
		JOINT Neck
		{
			OFFSET 0.00 0.2701 0.00
			CHANNELS 3 Zrotation Xrotation Yrotation
			End Site
			{
				OFFSET 0.00 0.1379 0.00
			}
		}
		JOINT RightShoulder
		{
			OFFSET 0.0119 0.2289 0.1181
			CHANNELS 3 Zrotation Xrotation Yrotation
			JOINT RightElbow
			{
				OFFSET 0.00 -0.1475 0.00
				CHANNELS 2 Zrotation Yrotation
				JOINT RightWrist
				{
					OFFSET 0.00 -0.1605 0.00
					CHANNELS 2 Zrotation Xrotation
					End Site
					{
						OFFSET 0.0040 -0.1068 0.0006
					}
				}
			}
		}
		JOINT LeftShoulder
		{
			OFFSET 0.0119 0.2289 -0.1181
			CHANNELS 3 Zrotation Xrotation Yrotation
			JOINT LeftElbow
			{
				OFFSET 0.00 -0.1475 0.00
				CHANNELS 2 Zrotation Yrotation
				JOINT LeftWrist
				{
					OFFSET 0.00 -0.1605 0.00
					CHANNELS 2 Zrotation Xrotation
					End Site
					{
						OFFSET 0.0040 -0.1068 -0.0006
					}
				}
			}
		}
	}
	JOINT RightHip
	{
		OFFSET 0.0316 -0.0424 0.0458
		CHANNELS 3 Zrotation Xrotation Yrotation
		JOINT RightKnee
		{
			OFFSET 0.00 -0.2438 0.00
			CHANNELS 1 Zrotation
			JOINT RightAnkle
			{
				OFFSET 0.00 -0.2449 0.00
				CHANNELS 3 Zrotation Xrotation Yrotation
				End Site
				{
					OFFSET 0.1237 -0.0542 0.0051
				}
			}
		}
	}
	JOINT LeftHip
	{
		OFFSET 0.0316 -0.0424 -0.0458
		CHANNELS 3 Zrotation Xrotation Yrotation
		JOINT LeftKnee
		{
			OFFSET 0.00 -0.2438 0.00
			CHANNELS 1 Zrotation
			JOINT LeftAnkle
			{
				OFFSET 0.00 -0.2449 0.00
				CHANNELS 3 Zrotation Xrotation Yrotation
				End Site
				{
					OFFSET 0.1237 -0.0542 -0.0051
				}
			}
		}
	}
}
MOTION
Frames: 22
Frame Time: 0.02
0.06145 0.00287 -0.07436 -160.24368 -41.56647 -0.96298 49.24257 2.68009 -2.82155 -1.97177 7.12355 -2.1193 30.1993 -45.96967 -26.00011 94.76848 82.45471 1.70596 -2.16123 -17.72979 13.25165 14.56858 122.97489 -94.64835 11.8558 -0.42671 47.33118 -1.3652 -13.71649 -20.38248 -6.70823 -1.3364 -2.9021 49.50965 4.41932 5.01795 -24.78564 -7.1705 0.85205 2.70311
0.06133 0.00289 -0.07435 -160.78211 -41.81832 -0.99394 49.26706 2.76202 -3.36497 -1.76562 7.70013 -2.11932 32.65991 -47.51767 -27.85588 93.82116 82.28324 1.83262 -2.35056 -18.91358 13.44753 15.52935 123.39107 -94.28748 12.07952 -0.29888 47.61399 -1.33429 -13.5054 -20.37288 -6.71496 -1.30109 -2.88466 49.68701 4.51348 5.50815 -24.79377 -7.16144 0.86287 2.70562
0.06121 0.00291 -0.07434 -161.37107 -42.09744 -1.0118 49.30944 2.89754 -3.90665 -1.46756 8.10545 -2.11932 35.11751 -48.6936 -29.65442 92.80618 82.04802 1.82333 -2.53065 -20.06296 13.53246 16.52229 123.79334 -94.67093 12.50041 -0.30712 47.93755 -1.29246 -13.14313 -20.36202 -6.7238 -1.27654 -2.87237 49.88364 4.6276 6.14718 -24.80322 -7.15924 0.8645 2.70247
0.06108 0.00293 -0.07433 -161.93505 -42.35932 -1.03505 49.34412 3.00771 -4.4459 -1.22375 8.58093 -2.11933 37.49705 -50.02899 -31.47055 91.83751 81.84793 1.87438 -2.71146 -21.20668 13.66774 17.48585 124.19411 -94.6892 12.81596 -0.25029 48.23623 -1.25876 -12.86519 -20.35165 -6.73218 -1.24561 -2.85714 50.06637 4.72898 6.70445 -24.81234 -7.15338 0.87147 2.70259
0.06098 0.00296 -0.07432 -162.51216 -42.64289 -1.06082 49.3765 3.12323 -5.00076 -0.92514 9.08962 -2.11934 40.22718 -51.41252 -33.32385 90.79128 81.62144 1.93506 -2.90853 -22.44924 13.81337 18.51372 124.63004 -94.78655 13.18806 -0.20127 48.5629 -1.21206 -12.52375 -20.34143 -6.73869 -1.2202 -2.8441 50.2712 4.8465 7.3243 -24.82035 -7.1497 0.87359 2.69987
0.06083 0.00298 -0.0743 -163.07216 -42.88686 -1.07822 49.41791 3.23998 -5.52162 -0.72041 9.48689 -2.11934 42.21534 -52.60066 -35.08344 89.89761 81.43503 1.94207 -3.06864 -23.47187 13.90523 19.41328 124.98809 -94.92316 13.49682 -0.17285 48.84027 -1.18934 -12.27574 -20.33074 -6.74945 -1.18639 -2.82794 50.43414 4.93469 7.84707 -24.83099 -7.14316 0.88369 2.70171
0.06056 0.00297 -0.07423 -163.57194 -43.02026 -1.07511 49.48194 3.34605 -5.95248 -0.78728 9.6327 -2.11935 42.21923 -53.38706 -36.62375 89.41177 81.37381 1.83395 -3.13233 -23.92667 13.90165 19.96559 125.14135 -94.80841 13.53318 -0.13858 48.97475 -1.24013 -12.34763 -20.31828 -6.77238 -1.12369 -2.80062 50.48043 4.93969 8.07822 -24.84844 -7.12689 0.9169 2.71709
0.06025 0.00296 -0.07414 -164.05183 -43.11185 -1.06403 49.55395 3.45161 -6.34822 -0.95331 9.66912 -2.11935 41.4641 -53.97992 -38.06708 89.08931 81.3554 1.67615 -3.15828 -24.15545 13.8427 20.38466 125.21558 -94.739 13.50764 -0.12559 49.05759 -1.31465 -12.51437 -20.30551 -6.79935 -1.05279 -2.77024 50.48335 4.9141 8.2047 -24.86848 -7.10758 0.95851 2.73726
0.05996 0.00295 -0.07406 -164.54105 -43.21879 -1.05707 49.62132 3.55769 -6.7576 -1.08147 9.74703 -2.11935 41.01219 -54.63105 -39.53819 88.71223 81.31805 1.54058 -3.19914 -24.46545 13.78997 20.85503 125.32084 -94.77348 13.54517 -0.12352 49.16171 -1.37519 -12.62091 -20.29348 -6.82382 -0.98778 -2.74216 50.50348 4.90049 8.36934 -24.88745 -7.08972 0.9972 2.75558
0.05965 0.00294 -0.07397 -165.03244 -43.34169 -1.04788 49.69444 3.66397 -7.177 -1.17832 9.85597 -2.11935 40.73303 -55.39703 -41.07604 88.24721 81.27611 1.40136 -3.24935 -24.86183 13.81002 21.36613 125.44482 -94.32566 13.44736 -0.04209 49.27607 -1.44853 -12.79312 -20.27904 -6.8511 -0.9141 -2.71044 50.53422 4.89504 8.57553 -24.90612 -7.07164 1.03236 2.77258
0.05939 0.00293 -0.07389 -165.51195 -43.42158 -1.04118 49.75618 3.76959 -7.56688 -1.36227 9.87364 -2.11936 39.91815 -55.87961 -42.45265 88.00825 81.25496 1.26027 -3.27102 -25.02913 13.67108 21.75966 125.51301 -94.86135 13.60741 -0.12564 49.35683 -1.50139 -12.85458 -20.26935 -6.87357 -0.85627 -2.68547 50.53308 4.8659 8.67261 -24.92586 -7.05344 1.07628 2.79324
0.05927 0.00288 -0.07383 -165.97894 -43.38831 -1.04705 49.79399 3.86801 -7.88661 -1.78745 9.6913 -2.11938 37.77072 -55.65424 -43.4069 88.32686 81.27855 1.12039 -3.22431 -24.58285 13.07003 21.86587 125.43095 -98.29192 14.55159 -0.69138 49.35277 -1.48831 -12.57412 -20.27472 -6.8807 -0.84544 -2.68043 50.4481 4.77106 8.45471 -24.94906 -7.03365 1.14843 2.82548
0.05921 0.00282 -0.07377 -166.43091 -43.31399 -1.05511 49.81843 3.96635 -8.17745 -2.29253 9.41683 -2.11941 35.1173 -55.14709 -44.20227 88.87228 81.32189 0.9811 -3.14966 -23.92017 12.31854 21.85686 125.29827 -102.67283 15.74537 -1.41658 49.31739 -1.45441 -12.18185 -20.28456 -6.88302 -0.85065 -2.68221 50.33383 4.65457 8.13573 -24.97296 -7.01418 1.22811 2.86081
0.05914 0.00277 -0.07372 -166.88009 -43.26126 -1.05973 49.84243 4.06831 -8.47956 -2.74531 9.16909 -2.11944 32.72144 -54.75296 -45.07175 89.33223 81.35852 0.8473 -3.08745 -23.38127 11.66014 21.89795 125.19924 -106.48852 16.78709 -2.04626 49.29913 -1.4326 -11.85029 -20.29115 -6.8883 -0.84756 -2.68043 50.23689 4.55322 7.88985 -24.99584 -6.99586 1.30024 2.89297
0.05901 0.0027 -0.07365 -167.37161 -43.1944 -1.07419 49.89338 4.15595 -8.78782 -3.26958 8.98214 -2.11947 30.18377 -54.4154 -45.93144 89.72514 81.38884 0.69151 -3.02635 -22.72952 10.89426 21.94589 125.05322 -110.86369 17.9916 -2.77094 49.2667 -1.40096 -11.48113 -20.30284 -6.89058 -0.8481 -2.68031 50.12077 4.42924 7.53167 -25.02198 -6.97202 1.38963 2.93257
0.05901 0.00266 -0.07361 -167.76859 -43.14813 -1.06905 49.88599 4.27239 -9.07746 -3.66192 8.64712 -2.1195 27.82965 -53.89559 -46.77298 90.30736 81.43419 0.57711 -2.95513 -22.2613 10.31864 21.95153 124.99319 -114.30542 18.91491 -3.3393 49.25726 -1.38396 -11.16131 -20.30501 -6.89775 -0.84544 -2.67863 50.03912 4.34662 7.3773 -25.04123 -6.95972 1.4453 2.95757
0.05934 0.00272 -0.07365 -167.93359 -43.16545 -1.00687 49.71128 4.47656 -9.3174 -3.67697 7.93536 -2.11952 26.12075 -52.94268 -47.62085 91.37473 81.53328 0.62131 -2.87747 -22.37873 10.29343 21.88889 125.19027 -114.87787 19.01984 -3.40208 49.31647 -1.4176 -11.0157 -20.27967 -6.92102 -0.82609 -2.66908 50.05181 4.3928 7.87541 -25.04315 -6.97981 1.40117 2.93938
0.05979 0.00282 -0.07374 -167.99893 -43.2054 -0.92534 49.47994 4.708 -9.54045 -3.5553 7.0767 -2.11953 24.61364 -51.81656 -48.4526 92.62101 81.64203 0.69866 -2.78823 -22.68352 10.4671 21.78411 125.47417 -114.49003 18.83029 -3.30805 49.40025 -1.46563 -10.92142 -20.24468 -6.94908 -0.80377 -2.65812 50.1016 4.47991 8.57104 -25.03775 -7.0114 1.3236 2.9067
0.06018 0.0029 -0.07381 -168.09381 -43.23779 -0.85434 49.28088 4.92182 -9.77535 -3.4908 6.2794 -2.11955 23.01027 -50.77034 -49.28137 93.77233 81.73674 0.73253 -2.69467 -22.88808 10.55809 21.68648 125.71457 -114.57882 18.76277 -3.30914 49.47511 -1.50362 -10.79592 -20.21415 -6.97401 -0.78539 -2.64906 50.1403 4.54219 9.13351 -25.03441 -7.03731 1.26459 2.88205
0.06059 0.00298 -0.07384 -168.2562 -43.2586 -0.77625 49.05423 5.15847 -9.99294 -3.44801 5.50096 -2.11957 21.41405 -49.71042 -50.15025 94.98775 81.8786 0.88819 -2.63985 -23.15319 10.61241 21.63709 125.97224 -114.52617 18.75208 -3.21677 49.54086 -1.55567 -10.6989 -20.18331 -7.00282 -0.7565 -2.63488 50.15495 4.62944 9.87344 -25.03636 -7.0651 1.19207 2.85162
0.06099 0.00307 -0.07398 -168.25256 -43.30773 -0.70811 48.87115 5.3531 -10.24126 -3.32912 4.65039 -2.11958 19.84994 -48.64003 -50.93108 96.11113 81.91712 0.79574 -2.50285 -23.33378 10.79085 21.47661 126.2127 -114.53373 18.55192 -3.27765 49.62996 -1.58214 -10.55744 -20.15096 -7.02472 -0.74873 -2.631 50.22722 4.67538 10.29471 -25.02566 -7.09179 1.13915 2.82951
0.06137 0.00316 -0.07437 -167.8318 -43.44433 -0.67374 48.8277 5.43295 -10.5924 -3.01026 3.63046 -2.11959 18.39479 -47.59742 -51.4965 96.91751 81.73227 0.03224 -2.13442 -23.28677 11.27466 21.03941 126.40656 -114.88194 17.88117 -3.81702 49.79376 -1.53457 -10.27126 -20.1151 -7.02667 -0.79855 -2.65535 50.46407 4.5918 9.76579 -24.98103 -7.11185 1.15258 2.83574
